PathFileType	4	(x/y/z)	TRC_MarkerData\Passive\Passive_Pref0007.trc
DataRate	CameraRate	NumFrames	NumMarkers	Units	OrigDataRate	OrigDataStartFrame	OrigNumFrames
240	240	8	50	mm	240	33	256
Frame#	Time	R_AC			L_AC			HEAD			STERN			L_IC			R_IC			L_ASIS			R_ASIS			L_GT			R_GT			L_PSIS			R_PSIS			SACRAL			L_LAT_KNEE			L_MED_KNEE			R_LAT_KNEE			R_MED_KNEE			L_LAT_ANK			L_MED_ANK			R_LAT_ANK			R_MED_ANK			L_THIGH_PROX_POST			L_THIGH_PROX_ANT			L_THIGH_DIST_ANT			L_THIGH_DIST_POST			R_THIGH_PROX_POST			R_THIGH_PROX_ANT			R_THIGH_DIST_ANT			R_THIGH_DIST_POST			L_SHANK_PROX_POST			L_SHANK_PROX_ANT			L_SHANK_DIST_ANT			L_SHANK_DIST_POST			R_SHANK_PROX_POST			R_SHANK_PROX_ANT			R_SHANK_DIST_ANT			R_SHANK_DIST_POST			L_HEEL_LAT			L_HEEL_SUP			L_HEEL_MED			R_HEEL_LAT			R_HEEL_SUP			R_HEEL_MED			L_1ST_MET			L_5TH_MET			L_TOE			R_1ST_MET			R_5TH_MET			R_TOE			C7			
		X1	Y1	Z1	X2	Y2	Z2	X3	Y3	Z3	X4	Y4	Z4	X5	Y5	Z5	X6	Y6	Z6	X7	Y7	Z7	X8	Y8	Z8	X9	Y9	Z9	X10	Y10	Z10	X11	Y11	Z11	X12	Y12	Z12	X13	Y13	Z13	X14	Y14	Z14	X15	Y15	Z15	X16	Y16	Z16	X17	Y17	Z17	X18	Y18	Z18	X19	Y19	Z19	X20	Y20	Z20	X21	Y21	Z21	X22	Y22	Z22	X23	Y23	Z23	X24	Y24	Z24	X25	Y25	Z25	X26	Y26	Z26	X27	Y27	Z27	X28	Y28	Z28	X29	Y29	Z29	X30	Y30	Z30	X31	Y31	Z31	X32	Y32	Z32	X33	Y33	Z33	X34	Y34	Z34	X35	Y35	Z35	X36	Y36	Z36	X37	Y37	Z37	X38	Y38	Z38	X39	Y39	Z39	X40	Y40	Z40	X41	Y41	Z41	X42	Y42	Z42	X43	Y43	Z43	X44	Y44	Z44	X45	Y45	Z45	X46	Y46	Z46	X47	Y47	Z47	X48	Y48	Z48	X49	Y49	Z49	X50	Y50	Z50	

33	0.13386	-608.34	1486.2	407.27	-618.83	1481.1	53.957	-611.73	1768.8	224.43	-575.21	1426.7	233.36	-652.27	1065.2	84.935	-647.91	1074.3	412.46	-588.89	991.66	109.2	-581.44	975.85	382.28	-656.14	905.06	54.544	-677.67	907.47	439.61	-771.06	1044.6	203.27	-769.29	1051.2	295.71	-784.2	1016.4	249.81	-508.17	526.74	119.85	-543.26	524.84	253.19	-794.48	514.53	379.71	-780.37	521.59	246.33	-512.03	107.67	159.45	-512.96	111.07	232.81	-1101	209.7	348.69	-1070.7	215.78	261.5	-609.04	735.62	87.716	-548.11	754.35	103.87	-522.11	686.98	120.25	-582.94	665.89	103.08	-774.15	717.48	397.16	-707.92	709.28	409.98	-722.38	636.26	398.22	-787.45	645.31	382.49	-519.94	440.34	125.68	-478.63	454.93	152.55	-486.65	396.28	160.02	-542.4	382.05	148.89	-948.88	433.75	369.73	-897.8	389.71	382.29	-949.89	334.84	370.09	-999.76	381.55	354.67	-591.42	39.161	166.5	-599.64	68.243	198.34	-589.65	39.224	233.14	-1189.1	232.14	314.68	-1164.9	250.17	283.49	-1174.4	227.5	248.46	-381.78	57.445	249.17	-410.66	38.243	144.16	-321.66	65.951	216.49	-1072	64.36	260	-1105.9	71.985	361.6	-1040.4	34.575	311.62	-689.24	1544.5	231.54
34	0.13804	-602.16	1487	406.68	-612.51	1482	53.562	-605.64	1769.5	223.96	-568.97	1427.5	232.79	-646.2	1065.9	84.734	-641.58	1075.1	412.06	-582.67	992.35	108.79	-575.08	976.68	381.71	-650.23	905.7	54.185	-670.66	907.77	439.21	-764.81	1045.3	203.17	-763.05	1051.9	295.59	-777.99	1017.1	249.74	-502.83	526.71	119.07	-537.93	525.42	252.4	-783.3	513.41	380.5	-768.84	520.04	247.08	-511.38	107.73	159.32	-512.23	111.25	232.73	-1092.7	212.58	350.58	-1062.5	218.08	263.2	-603.29	736.05	87.069	-542.36	754.62	103	-516.48	687.21	119.33	-577.42	666.3	102.45	-765.13	716.2	397.5	-698.78	708.83	410.15	-712.39	635.61	398.67	-777.61	643.84	383.1	-515.56	440.45	125.03	-474.09	454.61	151.85	-482.75	396.07	159.42	-538.66	382.48	148.33	-938.15	434.6	370.48	-887.67	389.98	383.4	-940.42	335.7	371.41	-989.66	382.98	355.61	-591.31	39.435	166.51	-599.51	68.513	198.32	-589.52	39.49	233.15	-1180	237.95	316.46	-1155.1	255.41	285.41	-1165.4	233.39	250.22	-381.62	57.144	249.18	-410.58	38.141	144.15	-321.47	65.424	216.51	-1067.7	65.928	260.68	-1101.8	74.469	362.44	-1038	33.695	312.18	-683.2	1545.1	231.06
35	0.14222	-596.06	1487.8	406.12	-606.2	1482.8	53.2	-599.52	1770.2	223.49	-562.78	1428.3	232.26	-640.13	1066.6	84.51	-635.35	1075.9	411.67	-576.44	993.03	108.4	-568.78	977.52	381.17	-644.26	906.33	53.809	-663.69	908.11	438.82	-758.58	1046	203.01	-756.86	1052.6	295.4	-771.8	1017.8	249.59	-497.65	526.65	118.33	-532.77	525.95	251.64	-771.99	512.35	381.32	-757.16	518.57	247.86	-510.73	107.79	159.19	-511.51	111.44	232.66	-1084.1	215.47	352.45	-1054	220.4	264.87	-597.59	736.45	86.429	-536.66	754.83	102.17	-510.94	687.37	118.46	-571.99	666.66	101.84	-756.06	714.96	397.87	-689.58	708.44	410.36	-702.34	635.03	399.16	-767.69	642.41	383.76	-511.31	440.53	124.41	-469.68	454.28	151.2	-478.97	395.85	158.86	-535.03	382.87	147.8	-927.22	435.44	371.27	-877.32	390.28	384.53	-930.72	336.59	372.74	-979.35	384.4	356.59	-591.19	39.719	166.53	-599.38	68.792	198.3	-589.38	39.765	233.16	-1170.6	243.66	318.25	-1145	260.54	287.33	-1156	239.16	251.99	-381.46	56.866	249.21	-410.51	38.07	144.16	-321.3	64.931	216.55	-1063.1	67.571	261.43	-1097.3	77.066	363.34	-1035.3	32.923	312.8	-677.19	1545.7	230.59
36	0.14641	-590.05	1488.6	405.61	-599.88	1483.7	52.871	-593.4	1770.8	223.04	-556.63	1429.1	231.78	-634.07	1067.3	84.263	-629.2	1076.6	411.27	-570.21	993.7	108.02	-562.53	978.38	380.66	-638.25	906.94	53.417	-656.77	908.5	438.42	-752.37	1046.7	202.79	-750.71	1053.3	295.15	-765.63	1018.4	249.38	-492.64	526.56	117.64	-527.78	526.42	250.93	-760.58	511.36	382.16	-745.35	517.18	248.66	-510.08	107.88	159.08	-510.81	111.64	232.6	-1075.1	218.36	354.29	-1045.2	222.73	266.52	-591.94	736.82	85.802	-531.02	754.98	101.39	-505.49	687.47	117.66	-566.64	666.98	101.25	-746.93	713.78	398.27	-680.34	708.11	410.61	-692.22	634.52	399.68	-757.71	641.03	384.44	-507.19	440.59	123.83	-465.42	453.94	150.59	-475.31	395.62	158.34	-531.5	383.24	147.3	-916.11	436.3	372.08	-866.78	390.6	385.66	-920.79	337.5	374.06	-968.83	385.82	357.59	-591.06	40.013	166.54	-599.23	69.081	198.29	-589.25	40.052	233.18	-1160.8	249.23	320.02	-1134.6	265.53	289.23	-1146.4	244.77	253.77	-381.31	56.605	249.26	-410.43	38.022	144.18	-321.12	64.465	216.61	-1058	69.282	262.25	-1092.3	79.76	364.3	-1032.1	32.293	313.48	-671.22	1546.2	230.13
37	0.15059	-584.13	1489.4	405.14	-593.56	1484.6	52.573	-587.26	1771.5	222.59	-550.52	1429.9	231.35	-628.01	1067.9	83.991	-623.14	1077.4	410.88	-563.98	994.36	107.66	-556.35	979.24	380.19	-632.19	907.53	53.01	-649.91	908.92	438.04	-746.18	1047.4	202.51	-744.6	1054	294.84	-759.48	1019.1	249.09	-487.79	526.44	117	-522.96	526.84	250.27	-749.07	510.44	383.02	-733.43	515.9	249.48	-509.44	107.97	158.98	-510.11	111.84	232.54	-1065.9	221.24	356.09	-1036.2	225.08	268.14	-586.35	737.17	85.191	-525.44	755.09	100.67	-500.13	687.51	116.92	-561.38	667.27	100.7	-737.76	712.66	398.7	-671.06	707.84	410.89	-682.07	634.09	400.23	-747.67	639.73	385.16	-503.19	440.63	123.3	-461.3	453.59	150.03	-471.77	395.38	157.86	-528.09	383.58	146.84	-904.83	437.16	372.93	-856.06	390.96	386.81	-910.65	338.42	375.37	-958.11	387.24	358.62	-590.93	40.317	166.56	-599.08	69.381	198.29	-589.11	40.35	233.2	-1150.8	254.63	321.76	-1124	270.35	291.1	-1136.5	250.16	255.52	-381.15	56.359	249.31	-410.35	37.992	144.2	-320.94	64.021	216.69	-1052.5	71.056	263.14	-1086.9	82.528	365.32	-1028.4	31.839	314.24	-665.28	1546.8	229.68
38	0.15477	-578.31	1490.1	404.71	-587.24	1485.4	52.306	-581.11	1772.2	222.17	-544.46	1430.7	230.98	-621.95	1068.6	83.695	-617.17	1078.1	410.48	-557.75	994.99	107.31	-550.22	980.1	379.75	-626.08	908.1	52.593	-643.1	909.37	437.66	-740.02	1048.1	202.16	-738.53	1054.7	294.46	-753.36	1019.7	248.73	-483.1	526.31	116.42	-518.31	527.2	249.65	-737.48	509.62	383.9	-721.44	514.73	250.32	-508.8	108.08	158.89	-509.43	112.05	232.49	-1056.5	224.11	357.84	-1026.8	227.42	269.71	-580.82	737.5	84.601	-519.92	755.15	100.01	-494.86	687.5	116.25	-556.2	667.52	100.18	-728.56	711.61	399.15	-661.77	707.66	411.2	-671.88	633.74	400.82	-737.59	638.51	385.89	-499.33	440.65	122.82	-457.32	453.23	149.52	-468.35	395.14	157.43	-524.78	383.89	146.41	-893.4	438.02	373.8	-845.16	391.35	387.95	-900.31	339.35	376.67	-947.22	388.65	359.68	-590.8	40.629	166.57	-598.91	69.689	198.29	-588.96	40.659	233.23	-1140.6	259.81	323.45	-1113.1	274.97	292.92	-1126.4	255.31	257.24	-381	56.125	249.38	-410.27	37.972	144.24	-320.77	63.595	216.77	-1046.4	72.887	264.1	-1080.9	85.351	366.41	-1024.1	31.591	315.08	-659.38	1547.4	229.24
39	0.15895	-572.57	1490.9	404.34	-580.92	1486.3	52.067	-574.94	1772.9	221.77	-538.43	1431.5	230.65	-615.89	1069.2	83.375	-611.27	1078.8	410.1	-551.52	995.61	106.99	-544.14	980.98	379.36	-619.92	908.66	52.168	-636.35	909.87	437.29	-733.87	1048.7	201.74	-732.5	1055.3	294.03	-747.26	1020.3	248.3	-478.57	526.15	115.9	-513.84	527.52	249.09	-725.82	508.88	384.8	-709.38	513.7	251.16	-508.16	108.2	158.81	-508.76	112.26	232.44	-1046.7	226.96	359.53	-1017.3	229.76	271.22	-575.34	737.82	84.036	-514.46	755.18	99.413	-489.67	687.45	115.66	-551.1	667.74	99.682	-719.32	710.64	399.62	-652.45	707.55	411.55	-661.66	633.49	401.43	-727.47	637.38	386.64	-495.6	440.65	122.38	-453.48	452.87	149.07	-465.05	394.9	157.04	-521.58	384.18	146.02	-881.84	438.9	374.69	-834.11	391.78	389.09	-889.78	340.31	377.95	-936.17	390.05	360.76	-590.66	40.95	166.59	-598.74	70.007	198.29	-588.82	40.978	233.26	-1130.2	264.75	325.08	-1102.1	279.37	294.68	-1116	260.17	258.92	-380.85	55.902	249.45	-410.19	37.959	144.28	-320.59	63.184	216.86	-1039.8	74.769	265.15	-1074.4	88.205	367.55	-1019.2	31.574	316.02	-653.51	1548	228.82
40	0.16314	-566.92	1491.6	404.02	-574.6	1487.2	51.856	-568.76	1773.6	221.39	-532.45	1432.3	230.38	-609.83	1069.9	83.033	-605.45	1079.5	409.71	-545.29	996.2	106.68	-538.13	981.85	379	-613.73	909.21	51.74	-629.65	910.4	436.94	-727.76	1049.3	201.26	-726.51	1055.9	293.53	-741.18	1020.9	247.8	-474.2	525.98	115.44	-509.52	527.79	248.58	-714.09	508.25	385.7	-697.29	512.81	252.02	-507.54	108.32	158.74	-508.1	112.47	232.4	-1036.8	229.77	361.15	-1007.5	232.09	272.69	-569.92	738.12	83.496	-509.06	755.18	98.881	-484.58	687.36	115.14	-546.09	667.93	99.219	-710.06	709.76	400.1	-643.12	707.53	411.93	-651.43	633.34	402.07	-717.32	636.35	387.4	-491.99	440.64	121.99	-449.78	452.51	148.66	-461.86	394.66	156.69	-518.49	384.45	145.66	-870.15	439.79	375.61	-822.9	392.25	390.23	-879.07	341.28	379.22	-924.97	391.45	361.85	-590.52	41.278	166.6	-598.56	70.334	198.29	-588.68	41.306	233.29	-1119.6	269.4	326.64	-1091	283.51	296.35	-1105.5	264.72	260.53	-380.7	55.689	249.53	-410.1	37.949	144.32	-320.42	62.787	216.96	-1032.7	76.695	266.27	-1067.3	91.069	368.75	-1013.6	31.806	317.05	-647.67	1548.6	228.4
